<?xml version="1.0" standalone="no"?>
<!DOCTYPE svg PUBLIC "-//W3C//DTD SVG 20010904//EN"
 "http://www.w3.org/TR/2001/REC-SVG-20010904/DTD/svg10.dtd">
<svg version="1.0" xmlns="http://www.w3.org/2000/svg"
 width="719.000000pt" height="685.000000pt" viewBox="0 0 719.000000 685.000000"
 preserveAspectRatio="xMidYMid meet">

<g transform="translate(0.000000,685.000000) scale(0.100000,-0.100000)"
fill="#000000" stroke="none">
<path d="M3597 6174 c-4 -4 -7 -972 -7 -2151 l0 -2143 228 2 227 3 2 184 c1
100 3 185 5 187 2 1 33 -36 68 -84 180 -239 427 -362 730 -362 305 0 576 122
810 366 180 188 292 392 359 660 50 195 62 299 68 564 6 274 -7 428 -54 620
-141 580 -531 972 -1015 1017 l-68 6 0 -220 0 -219 53 -13 c178 -45 352 -208
450 -422 31 -68 83 -232 97 -309 47 -246 49 -585 4 -830 -49 -270 -178 -513
-342 -645 -152 -122 -363 -173 -541 -129 -207 51 -409 226 -517 450 -58 121
-79 212 -100 434 -41 447 15 821 163 1078 14 26 53 82 85 126 40 53 57 84 52
95 -4 9 -8 113 -9 231 -1 118 -3 216 -4 218 -7 16 -139 -110 -206 -197 l-50
-64 -5 774 -5 774 -236 3 c-129 1 -238 -1 -242 -4z"/>
<path d="M2716 6161 c-3 -4 -4 -351 -3 -770 1 -502 -1 -761 -8 -761 -5 0 -25
22 -43 49 -47 69 -133 154 -214 211 -39 28 -75 50 -80 50 -4 0 -8 -98 -8 -218
l0 -218 78 -79 c43 -44 98 -113 121 -153 141 -241 211 -584 197 -962 -6 -190
-17 -273 -53 -419 -46 -190 -126 -335 -254 -462 -129 -126 -279 -189 -454
-189 -110 0 -185 18 -290 71 -265 132 -422 395 -487 814 -16 107 -16 517 0
615 47 273 120 477 222 615 58 79 148 155 228 193 l72 34 -2 222 -3 221 -35
-3 c-19 -2 -62 -10 -95 -19 -394 -106 -703 -460 -830 -950 -56 -213 -83 -547
-65 -788 17 -238 33 -326 90 -509 121 -390 400 -729 706 -856 254 -105 517
-117 765 -35 153 51 321 187 419 339 23 36 46 63 51 60 5 -3 9 -90 9 -195 l0
-189 225 0 225 0 0 2145 0 2145 -239 0 c-132 0 -242 -4 -245 -9z"/>
<path d="M480 1760 c-13 -9 -13 -11 0 -20 8 -5 23 -10 32 -10 43 0 46 -18 47
-265 0 -129 -2 -241 -5 -250 -3 -8 -24 -20 -46 -25 -23 -7 -38 -16 -35 -23 3
-9 63 -13 220 -15 l217 -2 0 310 0 310 -207 0 c-120 0 -214 -5 -223 -10z"/>
<path d="M980 1752 c0 -15 8 -22 30 -27 16 -4 39 -18 50 -32 19 -24 20 -40 20
-233 0 -193 -1 -209 -20 -233 -11 -14 -34 -28 -50 -32 -22 -5 -30 -12 -30 -27
0 -20 4 -21 79 -14 228 19 391 140 391 291 0 53 -28 133 -65 180 -59 79 -180
132 -322 142 -79 6 -83 5 -83 -15z"/>
<path d="M3770 1763 c-166 -28 -301 -124 -331 -236 -57 -212 96 -376 385 -412
55 -7 56 -7 56 18 0 18 -8 28 -30 37 -17 7 -35 20 -39 29 -12 23 -14 451 -2
483 6 15 22 30 40 36 21 8 31 18 31 31 0 18 -6 21 -42 20 -24 -1 -54 -4 -68
-6z"/>
<path d="M3950 1754 c0 -12 15 -27 38 -39 l37 -20 3 -247 2 -246 -26 -21 c-15
-12 -33 -21 -40 -21 -8 0 -14 -11 -14 -25 0 -30 7 -31 121 -9 161 30 277 111
319 222 47 124 -6 263 -132 346 -45 30 -162 66 -235 72 -67 6 -73 5 -73 -12z"/>
<path d="M2340 1745 c-16 -19 -5 -35 24 -35 44 0 47 -13 44 -275 l-3 -247 -35
-12 c-19 -6 -35 -18 -35 -26 0 -13 32 -15 218 -18 l217 -2 0 315 0 315 -209 0
c-170 0 -211 -3 -221 -15z"/>
<path d="M2840 1736 c0 -18 7 -25 28 -29 15 -3 40 -15 55 -27 25 -20 27 -27
27 -89 0 -78 -14 -98 -74 -108 -29 -4 -36 -10 -36 -28 0 -18 7 -24 35 -29 59
-11 75 -38 75 -125 0 -42 -4 -81 -8 -87 -11 -18 -48 -34 -76 -34 -21 0 -26 -5
-26 -25 l0 -25 109 0 c127 0 195 11 268 44 119 55 124 175 9 230 -28 14 -78
30 -110 36 -41 8 -55 15 -45 21 8 5 24 9 36 9 39 0 128 39 156 68 41 42 44 82
12 121 -55 65 -179 101 -346 101 -87 0 -89 -1 -89 -24z"/>
<path d="M4517 1753 c-32 -8 -14 -37 28 -47 34 -8 81 -49 325 -292 l285 -284
113 0 112 0 0 98 0 97 -217 218 -217 217 -206 -1 c-113 -1 -213 -3 -223 -6z"/>
<path d="M5191 1751 c-21 -13 -6 -38 27 -46 55 -12 74 -44 79 -138 5 -76 9
-87 37 -120 18 -21 35 -37 39 -37 4 0 7 54 7 121 l0 121 31 29 c17 16 40 29
50 29 24 0 37 29 18 41 -8 5 -72 9 -144 9 -71 0 -136 -4 -144 -9z"/>
<path d="M5602 1668 l3 -93 31 -3 c27 -3 35 2 53 31 24 40 94 80 171 97 49 12
79 31 80 53 0 4 -77 7 -170 7 l-171 0 3 -92z"/>
<path d="M5998 1733 c-13 -16 -77 -98 -142 -183 -64 -85 -154 -204 -201 -265
-48 -62 -85 -120 -85 -132 l0 -23 178 0 177 1 100 131 c55 73 149 195 209 272
61 78 116 154 124 169 27 54 19 57 -166 57 l-168 0 -26 -27z"/>
<path d="M4610 1416 c0 -172 0 -175 -25 -204 -14 -17 -39 -34 -56 -37 -21 -5
-29 -12 -27 -23 3 -15 21 -17 152 -17 167 0 189 9 111 46 -67 31 -75 54 -75
204 l0 126 -32 40 c-17 21 -35 39 -40 39 -4 0 -8 -78 -8 -174z"/>
<path d="M1600 1330 l0 -30 200 0 200 0 0 30 0 30 -200 0 -200 0 0 -30z"/>
<path d="M6289 1304 c-74 -82 -116 -107 -204 -119 -47 -7 -85 -28 -85 -47 0
-5 82 -7 183 -6 l182 3 -1 88 c-1 48 -3 89 -5 91 -20 18 -49 14 -70 -10z"/>
<path d="M510 895 l0 -145 35 0 35 0 0 120 c0 66 3 120 8 120 4 -1 43 -54 87
-120 77 -115 81 -120 115 -119 37 0 41 3 160 178 23 33 46 61 51 61 6 0 9 -47
8 -117 l-2 -118 37 -3 37 -3 -3 143 -3 143 -60 0 c-67 0 -50 15 -166 -157 -29
-42 -56 -75 -59 -73 -4 3 -43 57 -86 120 l-79 115 -57 0 -58 0 0 -145z"/>
<path d="M1224 1025 c-3 -8 -4 -56 -3 -106 4 -90 5 -92 38 -119 43 -36 99 -50
204 -50 99 0 174 20 208 56 22 24 24 33 24 127 l0 102 -37 3 -38 3 0 -93 c0
-109 -12 -138 -60 -155 -48 -16 -164 -16 -205 1 -47 20 -55 41 -55 150 l0 96
-35 0 c-22 0 -38 -6 -41 -15z"/>
<path d="M1840 895 l0 -145 188 2 c227 4 254 22 37 26 l-144 3 -3 127 -3 127
-37 3 -38 3 0 -146z"/>
<path d="M2270 1025 c0 -12 17 -15 100 -15 l100 0 0 -130 0 -130 40 0 40 0 0
130 0 130 101 0 c76 0 100 3 97 13 -4 9 -63 13 -241 15 -206 2 -237 0 -237
-13z"/>
<path d="M2840 896 l0 -146 35 0 35 0 2 130 c0 72 1 136 2 143 1 7 -14 13 -36
15 l-38 3 0 -145z"/>
<path d="M3196 1024 c-146 -35 -199 -121 -121 -198 44 -44 113 -66 230 -73 66
-4 107 -1 155 11 58 15 66 15 76 1 6 -8 23 -15 38 -15 26 0 26 1 26 75 l0 75
-115 0 c-94 0 -115 -3 -115 -15 0 -11 18 -15 78 -17 69 -3 77 -5 77 -23 0 -52
-186 -84 -299 -51 -73 22 -106 53 -106 101 0 72 80 115 215 115 70 0 150 -17
166 -36 6 -8 27 -14 45 -14 75 0 17 43 -86 65 -87 18 -186 18 -264 -1z"/>
<path d="M3879 1013 c-32 -35 -193 -234 -203 -250 -5 -10 3 -13 31 -13 35 0
43 5 71 45 l32 46 132 -3 132 -3 31 -42 c27 -37 34 -42 73 -42 23 -1 42 1 42
5 0 3 -55 68 -121 145 -115 132 -123 139 -158 139 -28 0 -44 -7 -62 -27z m114
-73 c26 -33 47 -62 47 -65 0 -3 -45 -5 -100 -5 -55 0 -100 2 -100 5 0 9 92
125 99 125 4 0 29 -27 54 -60z"/>
<path d="M4307 1033 c-4 -3 -7 -69 -7 -145 l0 -138 40 0 40 0 0 123 0 122 20
-25 c11 -14 49 -69 86 -122 64 -94 68 -98 103 -98 35 1 39 5 110 110 40 60 79
115 87 121 12 10 14 -8 14 -110 l0 -121 35 0 35 0 0 145 0 145 -57 0 -58 -1
-50 -72 c-27 -39 -63 -93 -80 -119 -16 -27 -32 -48 -35 -48 -3 0 -31 37 -61
82 -109 165 -102 158 -162 158 -30 0 -57 -3 -60 -7z"/>
<path d="M5030 895 l0 -146 38 3 37 3 0 140 0 140 -37 3 -38 3 0 -146z"/>
<path d="M5240 895 l0 -145 35 0 35 0 0 108 c0 60 3 111 6 114 6 6 297 -199
302 -214 2 -4 24 -8 48 -8 l44 0 0 145 0 145 -30 0 -29 0 -3 -107 c-2 -65 -7
-108 -14 -110 -6 -2 -79 46 -162 107 -133 97 -157 110 -192 110 l-40 0 0 -145z"/>
<path d="M6000 1026 c-105 -24 -164 -71 -164 -133 0 -46 51 -95 126 -119 83
-26 217 -30 294 -9 61 17 66 17 78 0 7 -10 22 -16 36 -13 23 3 25 7 28 76 l3
72 -121 0 c-93 0 -121 -3 -118 -12 3 -9 31 -14 82 -16 l77 -3 -3 -27 c-4 -33
-49 -51 -153 -59 -101 -8 -181 11 -222 52 -84 84 12 175 184 175 74 0 147 -16
164 -36 12 -15 89 -20 89 -6 0 16 -61 43 -127 57 -81 17 -177 18 -253 1z"/>
</g>
</svg>
